{
  "accessors": [
    {
      "bufferView": 2,
      "componentType": 5126,
      "count": 4162,
      "max": [
        0.9999979734420776,
        1.0,
        1.0
      ],
      "min": [
        -0.9999979138374329,
        -0.9999961853027344,
        -1.0
      ],
      "type": "VEC3"
    },
    {
      "bufferView": 2,
      "byteOffset": 49944,
      "componentType": 5126,
      "count": 4162,
      "max": [
        1.0,
        1.0,
        1.0
      ],
      "min": [
        -1.0,
        -1.0,
        -1.0
      ],
      "type": "VEC3"
    },
    {
      "bufferView": 1,
      "componentType": 5126,
      "count": 4162,
      "max": [
        0.9689896106719971,
        0.9859319925308228
      ],
      "min": [
        0.01406798604875803,
        0.01406798604875803
      ],
      "type": "VEC2"
    },
    {
      "bufferView": 0,
      "componentType": 5125,
      "count": 24192,
      "type": "SCALAR"
    }
  ],
  "asset": {
    "extras": {
      "author": "MaggaModels (https://sketchfab.com/MaggaModels)",
      "license": "CC-BY-4.0 (http://creativecommons.org/licenses/by/4.0/)",
      "source": "https://sketchfab.com/3d-models/pixar-ball-93557889df05482383a3e2e5e0dc6b93",
      "title": "Pixar Ball"
    },
    "generator": "Sketchfab-12.66.0",
    "version": "2.0"
  },
  "bufferViews": [
    {
      "buffer": 0,
      "byteLength": 96768,
      "name": "floatBufferViews",
      "target": 34963
    },
    {
      "buffer": 0,
      "byteLength": 33296,
      "byteOffset": 96768,
      "byteStride": 8,
      "name": "floatBufferViews",
      "target": 34962
    },
    {
      "buffer": 0,
      "byteLength": 99888,
      "byteOffset": 130064,
      "byteStride": 12,
      "name": "floatBufferViews",
      "target": 34962
    }
  ],
  "buffers": [
    {
      "byteLength": 229952,
      "uri": "scene.bin"
    }
  ],
  "images": [
    {
      "uri": "textures/yellow_with_red_star_baseColor.png"
    }
  ],
  "materials": [
    {
      "doubleSided": true,
      "name": "yellow_with_red_star",
      "pbrMetallicRoughness": {
        "baseColorTexture": {
          "index": 0
        },
        "metallicFactor": 0.0,
        "roughnessFactor": 0.4
      }
    }
  ],
  "meshes": [
    {
      "name": "Pixar Ball_yellow with red star_0",
      "primitives": [
        {
          "attributes": {
            "NORMAL": 1,
            "POSITION": 0,
            "TEXCOORD_0": 2
          },
          "indices": 3,
          "material": 0,
          "mode": 4
        }
      ]
    }
  ],
  "nodes": [
    {
      "children": [
        1
      ],
      "matrix": [
        1.0,
        0.0,
        0.0,
        0.0,
        0.0,
        2.220446049250313e-16,
        -1.0,
        0.0,
        0.0,
        1.0,
        2.220446049250313e-16,
        0.0,
        0.0,
        0.0,
        0.0,
        1.0
      ],
      "name": "Sketchfab_model"
    },
    {
      "children": [
        2
      ],
      "matrix": [
        0.009999999776482582,
        0.0,
        0.0,
        0.0,
        0.0,
        0.0,
        0.009999999776482582,
        0.0,
        0.0,
        -0.009999999776482582,
        0.0,
        0.0,
        0.0,
        0.0,
        0.0,
        1.0
      ],
      "name": "165ee75d59724a1aa8b32a633174f563.fbx"
    },
    {
      "children": [
        3
      ],
      "name": "RootNode"
    },
    {
      "children": [
        4
      ],
      "matrix": [
        98.480775130631,
        7.942345274514206e-07,
        -17.36481873415585,
        0.0,
        -10.450409928062088,
        79.86355832347569,
        -59.267212775085206,
        0.0,
        13.868160608741038,
        60.181500688724356,
        78.65024536632568,
        0.0,
        0.0,
        100.0,
        0.0,
        1.0
      ],
      "name": "Pixar Ball"
    },
    {
      "mesh": 0,
      "name": "Pixar Ball_yellow with red star_0"
    }
  ],
  "samplers": [
    {
      "magFilter": 9729,
      "minFilter": 9987,
      "wrapS": 10497,
      "wrapT": 10497
    }
  ],
  "scene": 0,
  "scenes": [
    {
      "name": "Sketchfab_Scene",
      "nodes": [
        0
      ]
    }
  ],
  "textures": [
    {
      "sampler": 0,
      "source": 0
    }
  ]
}
